<svg fill="none" height="41" viewBox="0 0 150 41" width="150" xmlns="http://www.w3.org/2000/svg"><path d="m60.1136 23.7288h-4.4179l-.977 3.0588h-2.7187l4.3754-12.5752h3.101l4.3754 12.5752h-2.8037zm-3.8657-1.9543h3.271l-1.6143-5.1405h-.0424zm13.9333 5.2255c-3.7382 0-6.0746-2.4641-6.0746-6.5425 0-4.0359 2.2939-6.4575 5.9896-6.4575 2.9311 0 5.14 1.7418 5.5224 4.2908h-2.6338c-.3823-1.3169-1.4443-2.0817-2.8886-2.0817-2.0815 0-3.3134 1.5719-3.3134 4.2484 0 2.719 1.3169 4.3758 3.3984 4.3758 1.6992 0 2.8886-1.0621 2.9735-2.634v-.2124h-2.7186v-1.9117h5.3099v1.4019c0 3.4412-2.039 5.5229-5.5648 5.5229zm9.9402-.2124h-2.6338v-12.5752h5.1401c2.8886 0 4.5453 1.5294 4.5453 3.9935 0 1.6144-.8496 3.0163-2.2939 3.5686l2.6337 5.0131h-2.9736l-2.3363-4.5883h-2.124v4.5883zm0-6.5h2.2514c1.3168 0 2.0815-.7647 2.0815-1.9968 0-1.232-.8071-1.9967-2.124-1.9967h-2.2514v3.9935zm20.5176.2124c0 3.9935-2.3364 6.5-6.0746 6.5s-6.0746-2.5065-6.0746-6.5 2.3364-6.5 6.0746-6.5 6.0746 2.5065 6.0746 6.5zm-9.4305 0c0 2.634 1.3169 4.2909 3.3983 4.2909 2.0391 0 3.3559-1.6569 3.3559-4.2909s-1.3168-4.3333-3.3559-4.3333c-2.0814.0424-3.3983 1.6993-3.3983 4.3333zm10.2375 5.0131c0-.7647.637-1.402 1.402-1.402.764 0 1.402.6373 1.402 1.402s-.638 1.4019-1.402 1.4019c-.765 0-1.402-.6372-1.402-1.4019zm3.611-5.0131c0-4.0359 2.294-6.5 5.947-6.5 3.016 0 5.31 1.9118 5.522 4.7157h-2.549c-.254-1.5294-1.444-2.549-2.973-2.549-1.997 0-3.271 1.6568-3.271 4.3333s1.274 4.3333 3.271 4.3333c1.572 0 2.676-.9346 2.973-2.4215h2.549c-.297 2.8039-2.464 4.5882-5.522 4.5882-3.653 0-5.947-2.4216-5.947-6.5zm21.239 6.2876h-8.113v-12.5752h2.634v10.4085h5.479zm3.824-4.7157c0 1.6144.934 2.6765 2.633 2.6765 1.7 0 2.634-1.0621 2.634-2.6765v-7.8595h2.634v8.1144c0 2.7614-2.039 4.6732-5.268 4.6732-3.228 0-5.267-1.8693-5.267-4.6732v-8.1144h2.634zm9.982 4.7157v-12.5752h5.48c2.379 0 3.823 1.232 3.823 3.1438 0 1.3595-1.019 2.5065-2.379 2.719v.0849c1.7.1275 2.974 1.3595 2.974 3.0589 0 2.2091-1.657 3.6111-4.333 3.6111h-5.565zm2.634-7.3497h1.912c1.401 0 2.209-.6372 2.209-1.6993 0-1.0196-.723-1.5719-1.955-1.5719h-2.166zm2.251 5.3954c1.53 0 2.337-.6372 2.337-1.8268 0-1.1895-.85-1.7843-2.379-1.7843h-2.209v3.6536h2.251z" fill="#111"/><path d="m40 27.8534-.2094-12.4817c-2.8063 12.733-14.6178 16.5445-18.6388 16.9634 12.3979 3.4764 18.8482-4.4817 18.8482-4.4817zm-1.466-17.7592-9.8429-7.70676c8.1675 10.21986 3.644 21.65446 1.466 25.00526 10.4712-7.4555 8.3769-17.2985 8.3769-17.2985zm-14.911-10.0942-12.1884 2.97382c13.1099-.12565 19.4764 10.51308 20.7748 14.28268.6283-12.81671-8.5864-17.2565-8.5864-17.2565zm-17.0052 5.31937-5.31937 11.30893c8.12565-10.21992 20.35597-8.41887 24.12567-7.03667-9.5916-8.54451-18.8063-4.27226-18.8063-4.27226zm-6.6178 16.75393 5.82199 11.0576c-3.26702-12.6073 5.82201-21.0681 9.17281-23.24608-12.60736 2.51308-14.9948 12.18848-14.9948 12.18848zm8.79581 15.288 12.27229 2.5549c-11.85344-5.5288-12.60737-17.8429-12.14663-21.822-6.0733 11.2671-.12566 19.2671-.12566 19.2671zm2.84819-9.0053c2.8481 2.8063 13.3193 9.5079 25.0471 3.644l-9.5916 8.1675c0 .0419-10.3456-.0418-15.4555-11.8115z" fill="#037bff"/></svg>